<?xml version="1.0" encoding="UTF-8"?>
<svg id="_レイヤー_2" data-name="レイヤー 2" xmlns="http://www.w3.org/2000/svg" viewBox="0 0 381.66 125.25">
  <defs>
    <style>
      .cls-1 {
        fill: #445c93;
      }

      .cls-2 {
        fill: #5fc1c7;
      }

      .cls-3 {
        fill: #509d69;
      }

      .cls-4 {
        fill: #231815;
      }
    </style>
  </defs>
  <g id="_リネーブルキャリア_余白設定済み" data-name="リネーブルキャリア　余白設定済み">
    <g>
      <g>
        <g>
          <g>
            <path class="cls-4" d="M200.99,43.02V10.08h4.29l.03,30.68h15.02v2.25h-19.35Z"/>
            <path class="cls-4" d="M336.81,43.02V10.08h4.29l.03,30.68h15.02v2.25h-19.35Z"/>
            <path class="cls-4" d="M228.86,43.02V10.08h4.43v32.93h-4.43Z"/>
            <path class="cls-4" d="M241.88,43.02l-.07-32.93h4.36l17.44,26.36-.07-26.36h2.64l.04,32.93h-3.22l-18.49-27.87v27.87s-2.63,0-2.63,0Z"/>
            <path class="cls-4" d="M307.54,10.08h8.71c3.76,0,6.56.65,8.4,1.95,1.79,1.34,2.69,3.34,2.69,6.01,0,1.86-.57,3.4-1.7,4.64-1.13,1.24-2.89,2.19-5.29,2.86,2.8,0,5.02.7,6.64,2.1,1.6,1.43,2.39,3.36,2.39,5.77,0,3.06-1.1,5.43-3.3,7.1-2.2,1.67-5.33,2.5-9.41,2.5h-9.15V10.08ZM311.82,24.99l.71.07h1.15c3.01,0,5.25-.55,6.72-1.66,1.42-1.11,2.13-2.83,2.13-5.15,0-1.97-.66-3.45-1.98-4.45-1.34-1.01-3.32-1.51-5.96-1.51l-1.25.05-1.51.1v12.56ZM311.82,40.55l1.71.17h1.56c3.32,0,5.73-.55,7.23-1.66,1.5-1.11,2.25-2.87,2.25-5.3,0-2.2-.64-3.85-1.93-4.96-1.34-1.09-3.36-1.64-6.06-1.64l-2.15.1-2.61.2v13.09Z"/>
            <path class="cls-4" d="M362.07,43.02l-.07-32.93h19.66v2.27l-15.32.02v12.36h11.41v2.25h-11.41s0,13.77,0,13.77l15.32-.06v2.31h-19.6Z"/>
            <polygon class="cls-4" points="288.28 10.03 285.14 10.03 272.83 43.02 275.79 43.02 285.89 15.14 290.84 28.6 283.91 28.6 283.19 30.83 291.64 30.83 296.19 43.02 300.95 43.02 288.28 10.03"/>
          </g>
          <g>
            <g>
              <path class="cls-4" d="M300.59,89.12l-.07-32.63h19.48v2.25l-15.18.02v12.25h11.3v2.23h-11.3s0,13.65,0,13.65l15.18-.06v2.29h-19.42Z"/>
              <path class="cls-4" d="M328.91,89.12l-.07-32.63h19.48v2.25l-15.18.02v12.25h11.3v2.23h-11.3s0,13.65,0,13.65l15.18-.06v2.29h-19.42Z"/>
            </g>
            <path class="cls-4" d="M226.46,87.47c-.85.25-1.61.47-2.28.66-.71.2-1.51.38-2.4.54-1.63.3-3.21.45-4.73.45-1.6,0-3.05-.16-4.33-.47-.68-.17-1.3-.37-1.88-.59-.61-.24-1.21-.51-1.79-.82-2.43-1.43-4.38-3.44-5.85-6.04-1.47-2.6-2.2-5.44-2.2-8.54,0-4.94,1.5-8.92,4.5-11.91,2.95-2.98,6.85-4.47,11.7-4.47,1.13,0,1.94.02,2.43.05.44.06,1.06.16,1.87.28.81.13,1.6.29,2.37.48.77.2,1.64.45,2.61.77v3.3s-5.66-1.89-6.52-2.08c-.86-.19-1.75-.28-2.66-.28-3.47,0-6.25,1.22-8.34,3.65-2.09,2.46-3.13,5.76-3.13,9.89,0,4.43,1.07,7.91,3.23,10.45,2.12,2.54,5.11,3.81,8.97,3.81l2.03-.14c.74-.09,1.41-.26,2.03-.49l4.4-1.43v2.94Z"/>
            <polygon class="cls-4" points="248.56 56.35 245.44 56.35 233.21 89.12 236.15 89.12 246.18 61.42 251.11 74.8 244.21 74.8 243.5 77.01 251.9 77.01 256.42 89.12 261.14 89.12 248.56 56.35"/>
            <path class="cls-4" d="M289.35,86.04c-.85-.45-1.52-1.33-2.01-2.64l-.89-3.35c-.19-.91-.38-1.65-.57-2.2s-.44-1.08-.74-1.56c-.5-.86-1.13-1.52-1.92-1.96-.75-.53-1.75-.97-2.99-1.34,2.59-.57,4.52-1.53,5.8-2.87,1.28-1.31,1.92-2.99,1.92-5.05,0-2.92-.95-5.1-2.85-6.54-1.9-1.44-4.78-2.16-8.62-2.16h-8.58v32.76s4.24,0,4.24,0v-12.29s0-2.51,0-2.51v-15.7h2.32c3.1,0,5.33.53,6.71,1.59,1.37,1.06,2.06,2.81,2.06,5.23,0,2.28-.67,3.95-2.01,5.01-1.37,1.09-3.51,1.63-6.42,1.63h-.51v2.18l.27-.03c2.12,0,3.75.38,4.86,1.13,1.1.81,1.96,2.17,2.59,4.07l.65,2.35c.78,2.94,1.72,4.89,2.83,5.85.56.48,1.25.84,2.06,1.08.83.24,1.75.36,2.76.36l1.68-.17,1.56-2.11c-1.92,0-3.31-.25-4.17-.74Z"/>
            <path class="cls-4" d="M377.49,86.04c-.85-.45-1.52-1.33-2.01-2.64l-.89-3.35c-.19-.91-.38-1.65-.57-2.2s-.44-1.08-.74-1.56c-.5-.86-1.13-1.52-1.92-1.96-.75-.53-1.75-.97-2.99-1.34,2.59-.57,4.52-1.53,5.8-2.87,1.28-1.31,1.92-2.99,1.92-5.05,0-2.92-.95-5.1-2.85-6.54-1.9-1.44-4.78-2.16-8.62-2.16h-8.58v32.76s4.24,0,4.24,0v-12.29s0-2.51,0-2.51v-15.7h2.32c3.1,0,5.33.53,6.71,1.59,1.37,1.06,2.06,2.81,2.06,5.23,0,2.28-.67,3.95-2.01,5.01-1.37,1.09-3.51,1.63-6.42,1.63h-.51v2.18l.27-.03c2.12,0,3.75.38,4.86,1.13,1.1.81,1.96,2.17,2.59,4.07l.65,2.35c.78,2.94,1.72,4.89,2.83,5.85.56.48,1.25.84,2.06,1.08.83.24,1.75.36,2.76.36l1.68-.17,1.56-2.11c-1.92,0-3.31-.25-4.17-.74Z"/>
          </g>
        </g>
        <g>
          <path class="cls-4" d="M206.59,110.71v3.07c0,.67,0,2.55.06,3.41v.11c0,.15-.02.21-.13.21-.06,0-.15-.04-.3-.06-.21-.04-.55-.06-.88-.06-.38,0-.78.02-1.03.08-.1.02-.17.02-.21.02-.13,0-.15-.04-.15-.11s.02-.15.02-.27c.02-.72.08-2.46.08-3.29v-3.12c0-.49-.02-2.3-.08-2.8v-.09c0-.11.04-.15.19-.15h.38c.49,0,1.37-.04,1.85-.17.06-.02.11-.02.15-.02.11,0,.13.06.13.19v.17c-.04.55-.08,2.36-.08,2.9ZM215.58,113.77c0,6-3.54,8.78-10.91,9.26h-.02c-.25,0-.4-.48-.4-.82,0-.19.04-.32.13-.34,6.11-.78,8.49-3.07,8.49-8.51v-.4c-.02-.74-.06-2.82-.06-4.19,0-.49,0-.9.02-1.1,0-.08.04-.13.19-.13.04,0,.11,0,.19.02.13.04.3.04.48.04.42,0,.91-.06,1.37-.17.13-.04.23-.06.3-.06.13,0,.19.08.19.29v.13c-.02.29-.02.84-.02,1.52,0,1.47.02,3.47.04,4.19v.29Z"/>
          <path class="cls-4" d="M235.97,110.34v.19c0,.63-2.13,3.33-4.57,5.16v3.62c0,.67.02,2.55.06,3.41v.13c0,.13-.02.17-.11.17-.08,0-.17-.02-.3-.04-.21-.04-.55-.06-.88-.06-.38,0-.76.02-1.01.08-.09.02-.17.02-.23.02-.11,0-.13-.04-.13-.11s.02-.15.02-.27c0-.72.08-2.46.08-3.29v-2.02c-3.1,1.73-6.55,2.69-6.74,2.69-.25,0-.51-.61-.51-.89,0-.08.02-.11.06-.13,5.09-1.69,9.26-4.86,11.16-8.17h-5.73c-.27,0-3.96.08-4.15.1h-.06c-.09,0-.13-.06-.13-.15,0-.08.04-.17.04-.25.02-.1.04-.19.04-.3,0-.1-.02-.21-.04-.32-.02-.08-.08-.21-.08-.3,0-.08.04-.13.15-.13h.08c.19.04,3.37.13,4.15.13h1.75v-.53c0-.51-.06-1.45-.06-2v-.06c0-.17.06-.23.27-.23h.25c.65,0,1.45-.21,2-.29h.11c.17,0,.21.04.21.17,0,.04,0,.1-.02.17-.04.3-.08,1.69-.08,2.25v.51c1.24-.02,3.07-.06,4.19-.17h.04c.11,0,.19.04.19.29v.65ZM237,120.23c-.11.17-.21.23-.27.23-.11,0-.17-.15-.23-.27-.99-1.81-3.03-3.45-4.07-4.08-.04-.02-.06-.06-.06-.11,0-.25.4-.74.67-.74.36,0,5.73,2.21,5.73,2.84,0,.06-.06.15-.21.27-.44.34-1.07,1.12-1.56,1.87Z"/>
          <path class="cls-4" d="M255.03,114.72v.23c.03.08.04.15.04.23,0,.09-.03.17-.1.17h-.02c-.18-.02-2.96-.11-3.59-.11h-4.88c-.21,0-3.38.08-3.54.11h-.06c-.08,0-.09-.06-.09-.13,0-.06.01-.15.03-.21,0-.06.01-.19.01-.34,0-.23-.01-.48-.03-.61,0-.09-.04-.23-.04-.3s.01-.11.09-.11c.03,0,.06,0,.09.02.16.06,2.88.15,3.54.15h5.03c.92,0,3.33-.13,3.45-.17h.01c.06,0,.08.08.08.17,0,.08,0,.15-.02.23-.01.04-.01.42-.01.69Z"/>
          <g>
            <path class="cls-4" d="M260.68,123.03h-.04c-.25,0-.53-.59-.53-.91,0-.09.04-.17.09-.19,7.96-2.13,10.32-7.87,10.51-11.85h-6.38c-.29,0-4.38.1-4.61.11h-.06c-.11,0-.13-.06-.13-.11,0-.08.02-.15.04-.23.02-.09.02-.21.02-.32,0-.13,0-.29-.04-.44-.02-.09-.06-.21-.06-.3,0-.06.02-.09.13-.09h.09c.23.04,3.75.15,4.61.15,6.91,0,7.1-.02,9.64-.27h.06c.17,0,.21.09.21.19,0,.06-.02.09-.02.13-.61,7.08-4.63,12.44-13.54,14.13Z"/>
            <path class="cls-4" d="M277.85,110.04c0,.08-.08.15-.29.19-.53.13-.97.53-1.08.61-.08.06-.15.1-.21.1-.08,0-.13-.04-.15-.13-.11-.69-.51-1.79-.93-2.55,0-.02-.02-.04-.02-.06,0-.17.4-.34.65-.34.36,0,2.04,2,2.04,2.19ZM280.67,110.1c0,.08-.08.13-.29.21-.74.25-.97.59-1.09.67-.08.08-.15.11-.23.11-.06,0-.11-.04-.13-.13-.13-.7-.7-2.06-1.2-2.76-.02-.02-.02-.04-.02-.06,0-.17.4-.38.63-.38.4,0,2.32,2.11,2.32,2.34Z"/>
          </g>
          <path class="cls-4" d="M287.53,113.98c0,6.88-6.06,9.05-6.09,9.05-.3,0-.7-.55-.7-.84,0-.06.02-.11.06-.13,2.69-1.77,4.38-4,4.38-8.7,0-1.01-.04-4.32-.09-5.22,0-.08.02-.19.25-.19h.09c.13.02.27.02.42.02.4,0,.88-.04,1.33-.15.13-.04.23-.06.29-.06.11,0,.15.06.15.25v.17c-.08.88-.08,4.74-.08,5.81ZM289.81,122.3c-.13,0-.17-.04-.17-.13,0-.06.02-.13.02-.25.02-.7.04-2.32.04-3.18v-7.83c0-.49-.02-2.44-.08-2.93v-.1c0-.15.06-.21.25-.21h.3c.46,0,1.2-.04,1.68-.17.06-.02.11-.02.15-.02.11,0,.13.06.13.19v.17c-.04.55-.08,2.55-.08,3.09v8.04c1.47-.38,4-2.21,5.35-5.68.02-.08.11-.1.23-.1.34,0,.95.27.95.48v.04c-1.9,7.75-8.27,8.59-8.78,8.59Z"/>
          <path class="cls-4" d="M320.34,116.37c0,.13,0,.25.02.34.02.08.04.15.04.21,0,.1-.04.17-.13.17h-.02c-.21-.02-3.69-.11-4.49-.11h-1.98l.06.95c.06.67.3,3.89.42,4.72.02.08.02.13.02.17,0,.11-.04.13-.13.13-.08,0-.17,0-.29-.02-.19-.02-.49-.04-.82-.04-.46,0-.95.02-1.22.1-.34.08-.36-.02-.36-.1,0-.78-.21-4.4-.23-4.76l-.08-1.16h-2.4c-.27,0-4.25.08-4.46.11h-.06c-.11,0-.13-.06-.13-.15,0-.06.02-.15.04-.21.02-.11.04-.21.04-.32s-.02-.23-.04-.34c-.02-.09-.06-.21-.06-.29s.02-.11.09-.11c.04,0,.08,0,.11.02.21.06,3.64.15,4.46.15l2.32-.02-.29-3.89h-1.47c-.29,0-4.27.08-4.46.11h-.08c-.1,0-.13-.06-.13-.15,0-.08.02-.15.04-.21.02-.11.04-.21.04-.3,0-.11-.02-.23-.04-.36-.02-.08-.06-.19-.06-.29,0-.06.02-.11.11-.11.04,0,.08,0,.11.02.19.06,3.62.15,4.46.15h1.39l-.04-.67c-.04-.49-.21-2.65-.3-3.12,0-.04-.02-.08-.02-.11,0-.11.08-.13.34-.15.36,0,1.6-.11,2.11-.3.08-.02.13-.04.17-.04.13,0,.13.11.13.29,0,.53.11,2.7.15,3.29l.06.8c.84,0,1.56.02,1.89.02h.19c1.14,0,4.19-.13,4.32-.17h.04c.08,0,.11.06.11.15,0,.08-.02.15-.06.23-.02.08-.04.19-.04.32s.02.25.04.34c.02.08.04.15.04.23s-.04.15-.13.15h-.02c-.21-.02-3.69-.11-4.49-.11h-1.81l.29,3.89c.97,0,1.77,0,2.08.02.95,0,4.38-.13,4.51-.17h.04c.08,0,.11.06.11.15,0,.08-.02.15-.06.23-.02.08-.02.19-.02.32Z"/>
          <path class="cls-4" d="M337.72,113.52c0,.08,0,.15-.04.29-.99,3.75-4.15,4.99-4.32,4.99-.23,0-.61-.46-.61-.72,0-.06.02-.11.06-.15,1.35-1.12,2.23-2.69,2.27-4.04l-4.13.53.65,4.63c.08.51.44,2.86.57,3.48.02.06.02.1.02.13,0,.17-.08.25-.27.25-.06,0-.11-.02-.17-.02-.08-.02-.17-.02-.29-.02-.32,0-.74.06-1.09.13-.06,0-.11.02-.17.02-.15,0-.25-.08-.29-.34-.06-.53-.29-2.67-.38-3.31l-.65-4.67c-1.22.17-3.29.48-3.43.51-.06.02-.09.02-.13.02-.13,0-.17-.1-.17-.21,0-.04,0-.09.02-.13,0-.04.02-.1.02-.13,0-.19-.08-.38-.13-.55-.02-.06-.04-.11-.04-.15,0-.11.08-.17.23-.17h.08c.29,0,2.23-.19,3.39-.32l-.06-.44c-.06-.38-.29-1.87-.36-2.23-.02-.06-.02-.09-.02-.13,0-.17.11-.19.32-.21.29-.02,1.09-.17,1.47-.32.08-.04.15-.06.19-.06.15,0,.17.17.19.36.04.4.21,1.9.27,2.32l.08.44,3.79-.48c.42-.06,2.15-.27,2.72-.4.04,0,.08-.02.09-.02.19,0,.23.04.3.9.02.1.02.15.02.23Z"/>
          <path class="cls-4" d="M347.31,110.71v3.07c0,.67,0,2.55.06,3.41v.11c0,.15-.02.21-.13.21-.06,0-.15-.04-.3-.06-.21-.04-.55-.06-.88-.06-.38,0-.78.02-1.03.08-.1.02-.17.02-.21.02-.13,0-.15-.04-.15-.11s.02-.15.02-.27c.02-.72.08-2.46.08-3.29v-3.12c0-.49-.02-2.3-.08-2.8v-.09c0-.11.04-.15.19-.15h.38c.49,0,1.37-.04,1.85-.17.06-.02.11-.02.15-.02.11,0,.13.06.13.19v.17c-.04.55-.08,2.36-.08,2.9ZM356.3,113.77c0,6-3.54,8.78-10.91,9.26h-.02c-.25,0-.4-.48-.4-.82,0-.19.04-.32.13-.34,6.11-.78,8.49-3.07,8.49-8.51v-.4c-.02-.74-.06-2.82-.06-4.19,0-.49,0-.9.02-1.1,0-.08.04-.13.19-.13.04,0,.11,0,.19.02.13.04.3.04.48.04.42,0,.91-.06,1.37-.17.13-.04.23-.06.3-.06.13,0,.19.08.19.29v.13c-.02.29-.02.84-.02,1.52,0,1.47.02,3.47.04,4.19v.29Z"/>
          <path class="cls-4" d="M378.69,108.99c0,1.85-2.44,6.32-6.78,7.28h-.02c-.23,0-.51-.55-.51-.86,0-.09.02-.15.08-.19,2.36-1.08,3.87-3.62,4.08-5.98l-7.16.02c-.82,0-5.37.11-5.6.15h-.08c-.11,0-.15-.06-.15-.13,0-.06.02-.13.04-.19.04-.11.06-.25.06-.36,0-.17-.02-.32-.06-.46-.02-.1-.06-.19-.06-.29,0-.06.02-.11.13-.11.04,0,.08.02.11.02.27.06,4.84.13,5.64.13h5.88c.55,0,3.37-.08,4.15-.15h.06c.17,0,.21.1.21.27,0,.25-.02.61-.02.86ZM370.81,111.41c0,4.06-.53,9.45-7.52,11.6-.02,0-.06.02-.08.02-.32,0-.69-.61-.69-.9,0-.08.02-.13.08-.15,5.01-2.06,5.29-6.46,5.29-9.9v-.51c0-.29.08-.32.36-.32h.11c.49,0,1.31-.11,1.89-.32.15-.06.29-.11.38-.11.11,0,.17.09.17.38v.23Z"/>
        </g>
      </g>
      <g>
        <path class="cls-2" d="M143.03,105.31c0-.63,0-95.29,0-95.85,0-1.13-.16-2.31-.51-3.38-.21-.64-.75-1.56-1.53-1.56-.92,0-1.51.6-1.76,1.17-2.91,6.53-8.59,8.27-15.31,8.66-6.22.36-12.18-.43-18.01-1.8-.92-.22-1.8.48-1.8,1.42v74.3c0,.86.32,2.14.99,2.69,7.55,6.2,15.42,11,25.09,13.71,4.98,1.39,9.4,1.93,11.19,2.15.87.11,1.64-.57,1.64-1.44,0-.02,0-.04,0-.05Z"/>
        <path class="cls-1" d="M37.4.75c-1.82-.43-4.73-.15-6.56.05-9.58,1.03-15.72,1.89-25.7,6.9-.59.3-5.2,3.1-1.33,2.41,11.95-1.55,24.11,1.47,33.14,6.47,1.95,1.08,1.79-1.81,1.79-2.46V2.97c0-1.47.06-1.88-1.35-2.22Z"/>
        <path class="cls-1" d="M97.96,13.52c0-1.77-1.09-3.35-2.7-3.91-6.09-2.1-12.13-4.49-18.27-6.44l-.08-.03c-1.59-.51-3.2.74-3.2,2.48v44.29c0,1.15-.11,2.36.44,3.35,3.07,5.49,13.25,21.32,21.87,29.48.68.64,1.94.47,1.94-2.31V13.52Z"/>
        <path class="cls-1" d="M65.8,1.23C59.82.27,53.29-.1,46.77.02c-1.03.02-1.86,1.05-1.86,2.3v17.81c0,.77.32,1.48.86,1.91,7.77,6.24,12.63,10.19,19.87,19.61.48.63,1.82,1.85,1.82-.33V3.51c0-1.16-.71-2.12-1.66-2.28Z"/>
        <path class="cls-3" d="M128.35,112.23c-23.12-7.08-40.89-26.99-51.91-44.77C61.84,43.93,39.48,15.31,4.01,17.42.01,17.66.01,17.31.01,20.61c0,.63-.02,95.36-.01,95.92,0,1.13.18,2.31.54,3.37.22.64.77,1.55,1.57,1.54.93,0,1.53-.61,1.78-1.18,2.9-6.56,8.65-8.34,15.46-8.78,16.91-1.11,32,6.1,47.74,10.66,22.95,6.66,65.99,1.77,72.9-6.47,1.96-2.34-1.91-.46-11.63-3.44Z"/>
      </g>
    </g>
  </g>
</svg>